HIERARCHY
ROOT Hips
{
	OFFSET 0.000000 0.000000 0.000000
	CHANNELS 6 Xposition Yposition Zposition Xrotation Yrotation Zrotation
	JOINT LeftUpLeg_virtual
	{
		OFFSET 0.000000 0.000000 0.000000
		CHANNELS 3 Xrotation Yrotation Zrotation
		JOINT LeftUpLeg
		{
			OFFSET 15.427100 -6.655098 0.678600
			CHANNELS 3 Xrotation Yrotation Zrotation
			JOINT LeftLeg
			{
				OFFSET 4.081073 -39.591068 13.024000
				CHANNELS 3 Xrotation Yrotation Zrotation
				JOINT LeftFoot
				{
					OFFSET -4.081074 -37.707932 -15.979700
					CHANNELS 3 Xrotation Yrotation Zrotation
					JOINT LeftToeBase
					{
						OFFSET 5.346399 -15.068900 20.645000
						CHANNELS 3 Xrotation Yrotation Zrotation
						JOINT LeftToe_End
						{
							OFFSET 2.754700 0.931300 11.300900
							CHANNELS 3 Xrotation Yrotation Zrotation
							End Site
							{
								OFFSET 0 0 0
							}
						}
					}
				}
			}
		}
	}
	JOINT RightUpLeg_virtual
	{
		OFFSET 0.000000 0.000000 0.000000
		CHANNELS 3 Xrotation Yrotation Zrotation
		JOINT RightUpLeg
		{
			OFFSET -15.569500 -6.655098 0.678600
			CHANNELS 3 Xrotation Yrotation Zrotation
			JOINT RightLeg
			{
				OFFSET -4.081825 -39.591045 13.023800
				CHANNELS 3 Xrotation Yrotation Zrotation
				JOINT RightFoot
				{
					OFFSET 4.081824 -37.707954 -15.979600
					CHANNELS 3 Xrotation Yrotation Zrotation
					JOINT RightToeBase
					{
						OFFSET -5.346400 -15.068900 20.645000
						CHANNELS 3 Xrotation Yrotation Zrotation
						JOINT RightToe_End
						{
							OFFSET -2.754700 0.931300 11.300900
							CHANNELS 3 Xrotation Yrotation Zrotation
							End Site
							{
								OFFSET 0 0 0
							}
						}
					}
				}
			}
		}
	}
	JOINT Spine_virtual
	{
		OFFSET 0.000000 0.000000 0.000000
		CHANNELS 3 Xrotation Yrotation Zrotation
		JOINT Spine
		{
			OFFSET -0.279200 12.230698 -2.892100
			CHANNELS 3 Xrotation Yrotation Zrotation
			JOINT Spine1
			{
				OFFSET -0.232667 10.192268 -1.242267
				CHANNELS 3 Xrotation Yrotation Zrotation
				JOINT Spine1_split
				{
					OFFSET -0.232667 10.192268 -1.242267
					CHANNELS 3 Xrotation Yrotation Zrotation
					JOINT Spine2
					{
						OFFSET -0.232667 10.192268 -1.242267
						CHANNELS 3 Xrotation Yrotation Zrotation
						JOINT Neck_virtual
						{
							OFFSET 0.000000 0.000000 0.000000
							CHANNELS 3 Xrotation Yrotation Zrotation
							JOINT Neck
							{
								OFFSET -0.418800 17.814194 8.416900
								CHANNELS 3 Xrotation Yrotation Zrotation
								JOINT Head
								{
									OFFSET 0.000000 7.031097 3.806800
									CHANNELS 3 Xrotation Yrotation Zrotation
									JOINT HeadTop_End
									{
										OFFSET 0.000000 24.646606 12.978600
										CHANNELS 3 Xrotation Yrotation Zrotation
										End Site
										{
											OFFSET 0 0 0
										}
									}
								}
							}
						}
						JOINT LeftShoulder_virtual
						{
							OFFSET 0.000000 0.000000 0.000000
							CHANNELS 3 Xrotation Yrotation Zrotation
							JOINT LeftShoulder
							{
								OFFSET 8.476499 7.247704 -3.868750
								CHANNELS 3 Xrotation Yrotation Zrotation
								JOINT LeftShoulder_split
								{
									OFFSET 8.476499 7.247704 -3.868750
									CHANNELS 3 Xrotation Yrotation Zrotation
									JOINT LeftArm
									{
										OFFSET 9.308998 -2.777710 0.208600
										CHANNELS 3 Xrotation Yrotation Zrotation
										JOINT LeftForeArm
										{
											OFFSET 29.972298 0.000000 0.000000
											CHANNELS 3 Xrotation Yrotation Zrotation
											JOINT LeftHand
											{
												OFFSET 26.026505 0.000000 0.000000
												CHANNELS 3 Xrotation Yrotation Zrotation
												End Site
												{
													OFFSET 0 0 0
												}
											}
										}
									}
								}
							}
						}
						JOINT RightShoulder_virtual
						{
							OFFSET 0.000000 0.000000 0.000000
							CHANNELS 3 Xrotation Yrotation Zrotation
							JOINT RightShoulder
							{
								OFFSET -7.570500 7.247704 -3.868750
								CHANNELS 3 Xrotation Yrotation Zrotation
								JOINT RightShoulder_split
								{
									OFFSET -7.570500 7.247704 -3.868750
									CHANNELS 3 Xrotation Yrotation Zrotation
									JOINT RightArm
									{
										OFFSET -9.308998 -2.777710 0.208500
										CHANNELS 3 Xrotation Yrotation Zrotation
										JOINT RightForeArm
										{
											OFFSET -29.972300 0.000000 0.000000
											CHANNELS 3 Xrotation Yrotation Zrotation
											JOINT RightHand
											{
												OFFSET -26.026505 0.000000 0.000000
												CHANNELS 3 Xrotation Yrotation Zrotation
												End Site
												{
													OFFSET 0 0 0
												}
											}
										}
									}
								}
							}
						}
					}
				}
			}
		}
	}
}
MOTION
Frames: 4
Frame Time: 0.03333333
0.269567 73.139648 -5.422560 0.000000 0.000000 0.000000 -3.513310 -49.836841 3.475582 -22.099359 -0.591854 12.856524 51.659924 -2.045873 1.432485 -23.359061 8.627172 -13.295003 -1.824194 -0.968625 -8.512097 0.000000 0.000000 0.000000 -3.892289 -49.795883 3.663931 -31.436338 -16.623180 -34.216000 59.597820 11.406354 -7.750195 -21.784041 -30.047870 35.223214 8.235352 9.367633 -25.178965 0.000000 0.000000 0.000000 -3.952381 -45.264381 1.559976 13.836973 3.777130 -3.619109 -2.174975 -0.569027 -1.254041 0.058340 -0.251063 0.299788 0.000000 0.000000 0.000000 1.211963 1.104259 0.219306 9.437672 11.307019 0.213454 -10.989683 11.438957 -8.513634 0.000000 0.000000 0.000000 3.897818 -0.390042 0.232803 2.665764 6.612132 0.424451 -4.100907 -9.472566 -3.528697 -63.300841 2.443907 -48.347641 177.183344 -80.791029 173.468186 0.000000 0.000000 0.000000 2.420770 -0.664938 -0.154131 -1.983340 12.944169 -5.965198 -4.212413 -8.076077 4.239996 -52.961960 26.760210 85.531112 -123.620154 76.221250 130.618516 0.000000 0.000000 0.000000 
0.563476 72.427460 -4.059195 0.000000 0.000000 0.000000 -4.107819 -51.624332 3.271542 -23.890289 -0.714267 13.205391 52.998416 -1.741515 0.697032 -22.551562 9.899278 -13.102757 -2.265241 -0.772133 -9.218245 0.000000 0.000000 0.000000 -4.026273 -50.925207 3.673001 -31.212592 -15.848180 -34.775546 61.710629 11.747819 -7.927995 -23.376480 -30.072722 34.364154 10.742371 8.630873 -24.820061 0.000000 0.000000 0.000000 -4.405896 -46.200171 1.380181 14.299893 4.144368 -3.691650 -1.816806 -0.544605 -1.256080 0.037439 -0.267557 0.351394 0.000000 0.000000 0.000000 1.265405 1.054068 0.333924 9.104562 11.367394 0.692042 -12.028846 11.786119 -9.318980 0.000000 0.000000 0.000000 3.528449 -0.304322 0.161017 2.150394 6.660751 -0.326229 -3.187785 -11.660823 -1.840985 -64.399067 2.594326 -48.245912 170.304975 -81.034635 166.107195 0.000000 0.000000 0.000000 2.448669 -0.642061 -0.183468 -2.279670 13.059266 -5.788898 -2.397283 -7.544558 4.417286 -53.002589 28.125329 85.548406 -128.873075 75.067781 136.197647 0.000000 0.000000 0.000000 
0.982083 70.563942 -2.272141 0.000000 0.000000 0.000000 -4.691702 -53.460068 2.990534 -28.111102 -0.925815 14.830941 58.285515 -3.484923 -0.193634 -20.671772 9.078952 -14.301394 -2.828233 -0.923941 -9.438124 0.000000 0.000000 0.000000 -4.031253 -52.520142 3.718423 -31.183253 -14.747960 -36.056401 64.071307 12.436167 -8.759469 -24.658817 -30.041020 34.638854 10.043482 8.619867 -24.418717 0.000000 0.000000 0.000000 -4.667202 -47.995125 1.317228 15.120966 5.217490 -3.171095 -1.355304 -0.451207 -1.321348 -0.023331 -0.203545 0.278268 0.000000 0.000000 0.000000 1.629717 1.051923 0.400534 8.337697 11.581743 1.224112 -13.884646 13.111770 -10.716871 0.000000 0.000000 0.000000 3.250991 -0.210776 0.027421 1.755765 6.170803 -1.428091 -1.408512 -11.949203 0.080819 -66.051379 3.090694 -47.276520 163.764891 -81.968841 158.470374 0.000000 0.000000 0.000000 2.262819 -0.619658 -0.180646 -2.650179 13.338345 -5.744337 -2.332443 -6.700606 3.967142 -51.277632 28.827954 84.490465 -135.204155 73.121437 142.462228 0.000000 0.000000 0.000000 
1.493385 67.817413 -0.312767 0.000000 0.000000 0.000000 -5.073410 -55.063448 2.775768 -34.099293 -1.427150 17.648278 66.359782 -7.217814 -0.552300 -17.313671 6.163142 -17.081871 -5.535383 -1.343801 -8.575211 0.000000 0.000000 0.000000 -3.953775 -54.418009 3.707343 -31.589171 -13.338629 -37.932009 65.988131 13.561538 -10.013338 -25.368817 -29.793131 35.864357 6.532500 9.244375 -24.265953 0.000000 0.000000 0.000000 -4.840734 -50.347753 1.227654 16.178263 6.850735 -2.195270 -0.823131 -0.260087 -1.517726 0.002307 -0.110202 0.149773 0.000000 0.000000 0.000000 2.247583 1.137232 0.355817 7.197120 11.937144 1.734790 -16.424541 15.444842 -12.404755 0.000000 0.000000 0.000000 3.087914 -0.075904 -0.228536 1.584629 5.462482 -2.745296 0.696452 -10.547565 1.692660 -67.237058 4.777394 -45.094668 160.349032 -82.617272 153.736247 0.000000 0.000000 0.000000 1.974898 -0.550844 -0.241043 -3.093157 13.711811 -5.964838 -3.617842 -5.392887 3.093226 -48.264015 28.593994 82.787125 -139.538483 71.221203 146.302051 0.000000 0.000000 0.000000 
